<?xml version="1.0" encoding="UTF-8" standalone="no"?>
<svg width="31px" height="30px" viewBox="0 0 31 30" version="1.1" xmlns="http://www.w3.org/2000/svg" xmlns:xlink="http://www.w3.org/1999/xlink">
    <!-- Generator: Sketch 42 (36781) - http://www.bohemiancoding.com/sketch -->
    <title>Group</title>
    <desc>Created with Sketch.</desc>
    <defs></defs>
    <g id="desktop" stroke="none" stroke-width="1" fill="none" fill-rule="evenodd">
        <g id="Artboard" transform="translate(-37.000000, -42.000000)">
            <g id="Group" transform="translate(37.000000, 42.000000)">
                <path d="M26.4638393,8.33333333 L24.2098214,0 L0.667857143,6.25 L2.921875,14.5833333 C4.34107143,14.9166667 5.59330357,15.9166667 5.92723214,17.4166667 C6.34464286,18.9166667 5.84375,20.4166667 4.75848214,21.4166667 L7.0125,29.75 L30.5544643,23.5 L28.3004464,15.0833333 C26.88125,14.75 25.6290179,13.75 25.2950893,12.25 C24.8776786,10.75 25.3785714,9.25 26.4638393,8.33333333 L26.4638393,8.33333333 Z" id="Logo_1_" fill="#EF7622"></path>
                <path d="M17.7816964,8.58333333 L10.7691964,10.4166667 L12.1883929,15.6666667 L19.2008929,13.8333333 L20.6200893,19.0833333 L13.6075893,20.9166667 L15.0267857,26.1666667 L8.01428571,28 L6.34464286,21.6666667 C7.34642857,20.4166667 7.84732143,18.75 7.34642857,17 C6.84553571,15.3333333 5.67678571,14.0833333 4.090625,13.5 L2.3375,7.08333333 L16.3625,3.33333333 L17.7816964,8.58333333 L17.7816964,8.58333333 Z" id="Shape" fill="#FFFFFF"></path>
            </g>
        </g>
    </g>
</svg>